<mxfile host="65bd71144e" modified="2020-12-05T20:00:56.988Z" agent="5.0 (X11; Linux x86_64) AppleWebKit/537.36 (KHTML, like Gecko) Code/1.51.1 Chrome/83.0.4103.122 Electron/9.3.3 Safari/537.36" etag="N7JUiNoqmXR4PaW2R5FJ" version="13.10.0" type="embed">
    <diagram id="2et5DsY5SfMsuzan00fI" name="Page-1">
        <mxGraphModel dx="1118" dy="766" grid="1" gridSize="10" guides="1" tooltips="1" connect="1" arrows="1" fold="1" page="1" pageScale="1" pageWidth="827" pageHeight="1169" math="0" shadow="0">
            <root>
                <mxCell id="0"/>
                <mxCell id="1" parent="0"/>
                <mxCell id="5dqwa8UIt4xvhicL_fLm-3" style="rounded=0;orthogonalLoop=1;jettySize=auto;html=1;fontColor=#000000;" parent="1" source="5dqwa8UIt4xvhicL_fLm-1" target="5dqwa8UIt4xvhicL_fLm-2" edge="1">
                    <mxGeometry relative="1" as="geometry"/>
                </mxCell>
                <mxCell id="5dqwa8UIt4xvhicL_fLm-5" style="edgeStyle=none;rounded=0;orthogonalLoop=1;jettySize=auto;html=1;fontColor=#000000;" parent="1" source="5dqwa8UIt4xvhicL_fLm-1" target="5dqwa8UIt4xvhicL_fLm-4" edge="1">
                    <mxGeometry relative="1" as="geometry"/>
                </mxCell>
                <mxCell id="5dqwa8UIt4xvhicL_fLm-1" value="Account" style="ellipse;whiteSpace=wrap;html=1;fillColor=#f8cecc;strokeColor=#b85450;fontColor=#000000;" parent="1" vertex="1">
                    <mxGeometry x="344" y="200" width="140" height="70" as="geometry"/>
                </mxCell>
                <mxCell id="5dqwa8UIt4xvhicL_fLm-2" value="Key Box" style="ellipse;whiteSpace=wrap;html=1;fillColor=#dae8fc;strokeColor=#6c8ebf;fontColor=#000000;" parent="1" vertex="1">
                    <mxGeometry x="190" y="320" width="140" height="70" as="geometry"/>
                </mxCell>
                <mxCell id="5dqwa8UIt4xvhicL_fLm-4" value="Main Applications" style="ellipse;whiteSpace=wrap;html=1;fillColor=#dae8fc;strokeColor=#6c8ebf;fontColor=#000000;" parent="1" vertex="1">
                    <mxGeometry x="510" y="320" width="140" height="70" as="geometry"/>
                </mxCell>
            </root>
        </mxGraphModel>
    </diagram>
</mxfile>